<svg width="91" height="91" viewBox="0 0 91 91" fill="none" xmlns="http://www.w3.org/2000/svg">
<path d="M49.3982 7.5835C53.6639 7.59487 55.8289 7.61762 57.6982 7.6707L58.4338 7.69725C59.2831 7.72758 60.1211 7.7655 61.1334 7.811C65.1678 8.00058 67.9205 8.63758 70.3358 9.57412C72.8383 10.5372 74.9465 11.8415 77.0547 13.9459C78.9827 15.8414 80.4746 18.1341 81.4264 20.6647C82.363 23.08 83 25.8328 83.1896 29.8709C83.2351 30.8795 83.273 31.7175 83.3033 32.5706L83.3261 33.3062C83.3829 35.1717 83.4057 37.3367 83.4133 41.6023L83.4171 44.4309V49.398C83.4264 52.1637 83.3973 54.9293 83.3299 57.6942L83.3071 58.4297C83.2768 59.2829 83.2389 60.1208 83.1934 61.1294C83.0038 65.1675 82.3592 67.9165 81.4264 70.3356C80.4773 72.8676 78.9851 75.1609 77.0547 77.0544C75.1587 78.9818 72.866 80.4736 70.3358 81.4262C67.9205 82.3627 65.1678 82.9997 61.1334 83.1893C60.2337 83.2317 59.3338 83.2696 58.4338 83.3031L57.6982 83.3258C55.8289 83.3789 53.6639 83.4055 49.3982 83.413L46.5696 83.4168H41.6064C38.8394 83.4264 36.0725 83.3973 33.3064 83.3296L32.5708 83.3069C31.6707 83.2728 30.7708 83.2336 29.8711 83.1893C25.8368 82.9997 23.0841 82.3627 20.665 81.4262C18.1347 80.4759 15.8428 78.9838 13.9499 77.0544C12.0202 75.1597 10.5269 72.8667 9.57436 70.3356C8.63781 67.9203 8.00081 65.1675 7.81123 61.1294C7.76899 60.2297 7.73107 59.3298 7.69748 58.4297L7.67852 57.6942C7.60865 54.9293 7.57705 52.1637 7.58373 49.398V41.6023C7.57315 38.8367 7.60096 36.071 7.66715 33.3062L7.69369 32.5706C7.72402 31.7175 7.76194 30.8795 7.80744 29.8709C7.99702 25.8328 8.63402 23.0838 9.57056 20.6647C10.5227 18.1315 12.0189 15.838 13.9537 13.9459C15.8461 12.0178 18.1365 10.5258 20.665 9.57412C23.0841 8.63758 25.833 8.00058 29.8711 7.811C30.8797 7.7655 31.7215 7.72758 32.5708 7.69725L33.3064 7.6745C36.0713 7.60713 38.8369 7.57806 41.6026 7.58729L49.3982 7.5835ZM45.5004 26.5418C40.4723 26.5418 35.6502 28.5392 32.0948 32.0946C28.5395 35.65 26.5421 40.4721 26.5421 45.5002C26.5421 50.5282 28.5395 55.3504 32.0948 58.9057C35.6502 62.4611 40.4723 64.4585 45.5004 64.4585C50.5285 64.4585 55.3506 62.4611 58.906 58.9057C62.4613 55.3504 64.4587 50.5282 64.4587 45.5002C64.4587 40.4721 62.4613 35.65 58.906 32.0946C55.3506 28.5392 50.5285 26.5418 45.5004 26.5418ZM45.5004 34.1252C46.9942 34.1249 48.4734 34.4189 49.8536 34.9903C51.2337 35.5617 52.4879 36.3994 53.5443 37.4555C54.6007 38.5116 55.4388 39.7654 56.0107 41.1454C56.5826 42.5254 56.877 44.0045 56.8773 45.4983C56.8775 46.9921 56.5836 48.4713 56.0122 49.8514C55.4407 51.2316 54.6031 52.4857 53.547 53.5422C52.4909 54.5986 51.2371 55.4367 49.8571 56.0086C48.4771 56.5804 46.998 56.8749 45.5042 56.8752C42.4874 56.8752 39.5941 55.6767 37.4609 53.5435C35.3276 51.4103 34.1292 48.517 34.1292 45.5002C34.1292 42.4833 35.3276 39.59 37.4609 37.4568C39.5941 35.3236 42.4874 34.1252 45.5042 34.1252M65.4104 20.8543C64.1534 20.8543 62.9479 21.3537 62.0591 22.2425C61.1702 23.1314 60.6709 24.3369 60.6709 25.5939C60.6709 26.8509 61.1702 28.0565 62.0591 28.9453C62.9479 29.8341 64.1534 30.3335 65.4104 30.3335C66.6675 30.3335 67.873 29.8341 68.7618 28.9453C69.6507 28.0565 70.15 26.8509 70.15 25.5939C70.15 24.3369 69.6507 23.1314 68.7618 22.2425C67.873 21.3537 66.6675 20.8543 65.4104 20.8543Z" fill="#757575"/>
</svg>
